<?xml version="1.0" encoding="utf-8"?>
<!-- Generator: Adobe Illustrator 16.0.0, SVG Export Plug-In . SVG Version: 6.00 Build 0)  -->
<!DOCTYPE svg PUBLIC "-//W3C//DTD SVG 1.1//EN" "http://www.w3.org/Graphics/SVG/1.1/DTD/svg11.dtd" [
	<!ENTITY ns_extend "http://ns.adobe.com/Extensibility/1.0/">
	<!ENTITY ns_ai "http://ns.adobe.com/AdobeIllustrator/10.0/">
	<!ENTITY ns_graphs "http://ns.adobe.com/Graphs/1.0/">
	<!ENTITY ns_vars "http://ns.adobe.com/Variables/1.0/">
	<!ENTITY ns_imrep "http://ns.adobe.com/ImageReplacement/1.0/">
	<!ENTITY ns_sfw "http://ns.adobe.com/SaveForWeb/1.0/">
	<!ENTITY ns_custom "http://ns.adobe.com/GenericCustomNamespace/1.0/">
	<!ENTITY ns_adobe_xpath "http://ns.adobe.com/XPath/1.0/">
]>
<svg version="1.1" xmlns:x="&ns_extend;" xmlns:i="&ns_ai;" xmlns:graph="&ns_graphs;"
	 xmlns="http://www.w3.org/2000/svg" xmlns:xlink="http://www.w3.org/1999/xlink" x="0px" y="0px" width="400px" height="78.393px"
	 viewBox="0 0 400 78.393" enable-background="new 0 0 400 78.393" xml:space="preserve">
<metadata>
	<sfw  xmlns="&ns_sfw;">
		<slices></slices>
		<sliceSourceBounds  width="400" height="78.393" bottomLeftOrigin="true" x="100" y="-189.196"></sliceSourceBounds>
		<optimizationSettings>
			<targetSettings  fileFormat="PNG24Format" targetSettingsID="0">
				<PNG24Format  transparency="true" noMatteColor="true" matteColor="#000000" filtered="false" interlaced="false">
					</PNG24Format>
			</targetSettings>
		</optimizationSettings>
	</sfw>
</metadata>
<g id="white">
	<g>
		<path opacity="0.88" fill="#FFFFFF" d="M0.001,11.661c0,0.01-0.001,0.02-0.001,0.029v55.012c0,6.457,5.233,11.69,11.69,11.69
			c6.456,0,11.689-5.233,11.689-11.69V39.913L3.424,19.956C1.134,17.666-0.007,14.663,0.001,11.661z M19.956,3.424
			c-0.138-0.138-0.277-0.271-0.42-0.399c0.144,0.131,0.284,0.264,0.422,0.401L19.956,3.424z M66.702,0
			c-6.456,0-11.689,5.233-11.689,11.69v26.789l19.956,19.957c2.282,2.282,3.424,5.274,3.424,8.266V11.69
			C78.393,5.233,73.159,0,66.702,0z"/>
		<path opacity="0.65" fill="#FFFFFF" d="M39.196,22.664l15.816,15.815V11.69c0-3.285,1.356-6.251,3.537-8.375
			c-0.037,0.037-0.076,0.071-0.113,0.108L39.196,22.664z M74.969,3.424c-0.037-0.037-0.076-0.071-0.113-0.108
			c0.076,0.074,0.151,0.149,0.225,0.226C75.043,3.502,75.007,3.462,74.969,3.424z M23.38,66.702c0,3.259-1.334,6.205-3.484,8.325
			c0.02-0.021,0.041-0.039,0.061-0.059l19.24-19.24L23.38,39.913V66.702z M3.424,74.969c0.021,0.02,0.041,0.038,0.062,0.059
			c-0.039-0.039-0.078-0.077-0.115-0.116C3.388,74.931,3.405,74.95,3.424,74.969z"/>
		<path fill="#FFFFFF" d="M19.956,3.424c-4.564-4.565-11.967-4.565-16.532,0s-4.565,11.967,0,16.532l55.013,55.013
			c2.282,2.282,5.274,3.424,8.266,3.424c2.992,0,5.984-1.142,8.267-3.424c4.565-4.565,4.565-11.967,0-16.532L19.956,3.424z
			 M185.783,24.969c-3.151-1.714-6.72-2.572-10.703-2.572c-4.135,0-7.791,0.884-10.968,2.647c-3.177,1.766-5.648,4.287-7.413,7.564
			c-1.766,3.279-2.647,7.086-2.647,11.422c0,4.287,0.895,8.069,2.686,11.347c1.789,3.278,4.285,5.812,7.488,7.602
			c3.202,1.791,6.819,2.686,10.854,2.686c4.993,0,9.202-1.298,12.633-3.896c3.429-2.597,5.748-5.912,6.959-9.947h-11.423
			c-1.664,3.38-4.462,5.068-8.396,5.068c-2.724,0-5.019-0.856-6.884-2.571c-1.866-1.714-2.925-4.085-3.177-7.111h30.635
			c0.201-1.21,0.303-2.571,0.303-4.084c0-4.085-0.87-7.703-2.609-10.855C191.381,29.117,188.935,26.684,185.783,24.969z
			 M164.868,40.097c0.403-2.823,1.5-5.029,3.291-6.618c1.789-1.589,3.996-2.383,6.618-2.383c2.773,0,5.118,0.82,7.035,2.458
			c1.916,1.64,2.899,3.82,2.95,6.543H164.868z M131.246,22.473c-2.623,0-5.03,0.518-7.224,1.551
			c-2.194,1.034-3.998,2.458-5.408,4.273v-5.22h-10.591v41.906h10.591V41.837c0-3.328,0.844-5.887,2.533-7.678
			c1.689-1.789,3.996-2.686,6.922-2.686c2.874,0,5.144,0.896,6.808,2.686c1.664,1.791,2.496,4.35,2.496,7.678v23.146h10.59V40.399
			c0-5.647-1.539-10.047-4.614-13.199C140.272,24.049,136.238,22.473,131.246,22.473z M343.142,25.082
			c-3.279-1.789-6.935-2.686-10.969-2.686c-4.035,0-7.69,0.896-10.968,2.686c-3.278,1.791-5.862,4.324-7.753,7.603
			c-1.892,3.278-2.837,7.061-2.837,11.346c0,4.287,0.919,8.069,2.761,11.347c1.84,3.278,4.374,5.812,7.602,7.602
			c3.227,1.791,6.857,2.686,10.893,2.686c4.085,0,7.778-0.895,11.082-2.686c3.303-1.789,5.925-4.323,7.867-7.602
			c1.94-3.277,2.912-7.06,2.912-11.347c0-4.285-0.946-8.067-2.837-11.346C349.003,29.406,346.419,26.873,343.142,25.082z
			 M341.325,50.839c-1.009,1.865-2.357,3.265-4.046,4.197c-1.69,0.934-3.493,1.399-5.409,1.399c-3.025,0-5.534-1.07-7.526-3.215
			c-1.992-2.143-2.987-5.206-2.987-9.19c0-3.982,1.021-7.047,3.063-9.19c2.042-2.143,4.576-3.215,7.602-3.215
			c3.026,0,5.585,1.072,7.678,3.215c2.092,2.144,3.14,5.208,3.14,9.19C342.839,46.704,342.334,48.974,341.325,50.839z M395.386,27.2
			c-3.076-3.151-7.11-4.728-12.103-4.728c-2.623,0-5.03,0.518-7.224,1.551c-2.193,1.034-3.998,2.458-5.408,4.273v-5.22h-10.591
			v41.906h10.591V41.837c0-3.328,0.844-5.887,2.533-7.678c1.689-1.789,3.996-2.686,6.922-2.686c2.874,0,5.144,0.896,6.808,2.686
			c1.664,1.791,2.496,4.35,2.496,7.678v23.146H400V40.399C400,34.752,398.461,30.353,395.386,27.2z M231.5,46.148
			c0,3.328-0.832,5.889-2.496,7.678c-1.664,1.791-3.959,2.686-6.883,2.686c-2.875,0-5.144-0.895-6.809-2.686
			c-1.664-1.789-2.496-4.35-2.496-7.678V23.077h-10.59v24.584c0,3.732,0.719,6.947,2.156,9.645c1.438,2.698,3.415,4.74,5.938,6.127
			c2.521,1.388,5.421,2.08,8.699,2.08c2.571,0,4.954-0.518,7.148-1.551c2.193-1.033,3.971-2.458,5.332-4.273v5.295h10.666V23.077
			H231.5V46.148z M293.755,29.583v-6.506h-10.591v41.906h10.591V44.106c0-3.883,0.844-6.606,2.533-8.17
			c1.689-1.562,4.198-2.345,7.526-2.345h2.799V22.473c-2.824,0-5.332,0.631-7.526,1.891
			C296.894,25.624,295.116,27.364,293.755,29.583z M265.312,12.715h-10.665v10.362h-4.992v8.699h4.992v20.196
			c0,8.674,4.463,13.011,13.389,13.011h6.656v-8.926h-4.917c-1.614,0-2.761-0.314-3.441-0.945c-0.681-0.63-1.021-1.651-1.021-3.063
			V31.776h9.38v-8.699h-9.38V12.715z"/>
	</g>
</g>
</svg>
